<?xml version="1.0" encoding="UTF-8"?>
<svg width="135px" height="96px" viewBox="0 0 135 96" version="1.1" xmlns="http://www.w3.org/2000/svg" xmlns:xlink="http://www.w3.org/1999/xlink">
    <title>African Puzzle Logo</title>
    <g id="African-Puzzle-Logo" stroke="none" stroke-width="1" fill="none" fill-rule="evenodd">
        <g id="Brand-_-Logotype-_-Violet-Dark" transform="translate(-1.000000, 21.000000)" fill="#1A1122" fill-rule="nonzero">
            <path d="M84.4285715,48.9601174 L88.6391161,53.1648877 C88.6391161,53.4879748 88.3760213,53.75 88.0528278,53.75 L84.4285715,53.75 C84.1061517,53.75 83.8440887,53.4879748 83.8440887,53.1648877 L83.8440887,49.5436838 C83.8440887,49.2216273 84.1061517,48.9601174 84.4285715,48.9601174 Z M135.524508,48.9601174 C135.848029,48.9601174 136.10989,49.221899 136.10989,49.5439729 L131.898439,53.75 C131.57595,53.75 131.314863,53.4882184 131.314863,53.1651138 L131.314863,49.5439729 C131.314863,49.221899 131.57595,48.9601174 131.898439,48.9601174 L135.524508,48.9601174 Z M129.290839,48.9601174 C129.614291,48.9601174 129.876354,49.2216273 129.876354,49.5436838 L129.876354,53.1648877 C129.876354,53.4879748 129.614291,53.75 129.290839,53.75 L125.665809,53.75 C125.344421,53.75 125.081327,53.4879748 125.081327,53.1648877 L125.081327,49.5436838 C125.081327,49.2216273 125.344421,48.9601174 125.665809,48.9601174 L129.290839,48.9601174 Z M123.05821,48.9601174 C123.381731,48.9601174 123.642818,49.2216273 123.642818,49.5436838 L123.642818,53.1648877 C123.642818,53.4879748 123.381731,53.75 123.05821,53.75 L118.847791,49.5436838 C118.847791,49.2216273 119.10991,48.9601174 119.431367,48.9601174 L123.05821,48.9601174 Z M109.842344,48.9601174 L114.052763,53.1648877 C114.052763,53.4879748 113.790644,53.75 113.467122,53.75 L109.842344,53.75 C109.519855,53.75 109.257735,53.4879748 109.257735,53.1648877 L109.257735,49.5436838 C109.257735,49.2216273 109.519855,48.9601174 109.842344,48.9601174 Z M5.09930217,48.9601174 C5.42253059,48.9601174 5.68513758,49.2216273 5.68513758,49.5436838 L5.68513758,53.1648877 C5.68513758,53.4879748 5.42253059,53.75 5.09930217,53.75 L1.47413952,53.75 C1.15220092,53.75 0.89010989,53.4879748 0.89010989,53.1648877 L0.89010989,49.5436838 C0.89010989,49.2216273 1.15220092,48.9601174 1.47413952,48.9601174 L5.09930217,48.9601174 Z M28.5942901,48.9601174 C28.9177068,48.9601174 29.1807731,49.2216273 29.1807731,49.5436838 L29.1807731,53.1648877 C29.1807731,53.4879748 28.9177068,53.75 28.5942901,53.75 L24.3857455,49.5436838 C24.3857455,49.2216273 24.6482959,48.9601174 24.9706811,48.9601174 L28.5942901,48.9601174 Z M34.8291847,48.9601174 C35.1527058,48.9601174 35.4143091,49.2216273 35.4143091,49.5436838 L35.4143091,53.1648877 C35.4143091,53.4879748 35.1527058,53.75 34.8291847,53.75 L31.2028579,53.75 C30.8808847,53.75 30.6192814,53.4879748 30.6192814,53.1648877 L30.6192814,49.5436838 C30.6192814,49.2216273 30.8808847,48.9601174 31.2028579,48.9601174 L34.8291847,48.9601174 Z M41.0618778,48.9601174 C41.3852946,48.9601174 41.647845,49.221899 41.647845,49.5439729 L37.437753,53.75 C37.1158837,53.75 36.8528174,53.4882184 36.8528174,53.1651138 L36.8528174,49.5439729 C36.8528174,49.221899 37.1158837,48.9601174 37.437753,48.9601174 L41.0618778,48.9601174 Z M54.0092951,48.9601174 C54.3328167,48.9601174 54.5944199,49.2216273 54.5944199,49.5436838 L54.5944199,53.1648877 C54.5944199,53.4879748 54.3328167,53.75 54.0092951,53.75 L49.7993919,49.5436838 C49.7993919,49.2216273 50.0609951,48.9601174 50.3829687,48.9601174 L54.0092951,48.9601174 Z M60.2414725,48.9601174 C60.5648894,48.9601174 60.827956,49.2216273 60.827956,49.5436838 L60.827956,53.1648877 C60.827956,53.4879748 60.5648894,53.75 60.2414725,53.75 L56.6178634,53.75 C56.2959945,53.75 56.0329279,53.4879748 56.0329279,53.1648877 L56.0329279,49.5436838 C56.0329279,49.2216273 56.2959945,48.9601174 56.6178634,48.9601174 L60.2414725,48.9601174 Z M62.3715697,48.9601174 L66.5819891,53.1648877 C66.5819891,53.4879748 66.3203859,53.75 65.9968643,53.75 L62.3715697,53.75 C62.0485643,53.75 61.7869611,53.4879748 61.7869611,53.1648877 L61.7869611,49.5436838 C61.7869611,49.2216273 62.0485643,48.9601174 62.3715697,48.9601174 Z M76.0659694,48.9601174 C76.3894563,48.9601174 76.6515469,49.2216273 76.6515469,49.5436838 L76.6515469,53.1648877 C76.6515469,53.4879748 76.3894563,53.75 76.0659694,53.75 L71.8565195,49.5436838 C71.8565195,49.2216273 72.1191263,48.9601174 72.440549,48.9601174 L76.0659694,48.9601174 Z M82.2992474,48.9601174 C82.6224761,48.9601174 82.8850829,49.2216273 82.8850829,49.5436838 L82.8850829,53.1648877 C82.8850829,53.4879748 82.6224761,53.75 82.2992474,53.75 L78.674085,53.75 C78.3521461,53.75 78.0900555,53.4879748 78.0900555,53.1648877 L78.0900555,49.5436838 C78.0900555,49.2216273 78.3521461,48.9601174 78.674085,48.9601174 L82.2992474,48.9601174 Z M107.233587,48.9601174 C107.557108,48.9601174 107.819227,49.2216273 107.819227,49.5436838 L107.819227,53.1648877 C107.819227,53.4879748 107.557108,53.75 107.233587,53.75 L103.607776,53.75 C103.286318,53.75 103.024199,53.4879748 103.024199,53.1648877 L103.024199,49.5436838 C103.024199,49.2216273 103.286318,48.9601174 103.607776,48.9601174 L107.233587,48.9601174 Z M101.480585,48.9601174 C101.804106,48.9601174 102.065194,49.2216273 102.065194,49.5436838 L102.065194,53.1648877 C102.065194,53.4879748 101.804106,53.75 101.480585,53.75 L97.8537427,53.75 C97.5333171,53.75 97.2701659,53.4879748 97.2701659,53.1648877 L97.2701659,49.5436838 C97.2701659,49.2216273 97.5333171,48.9601174 97.8537427,48.9601174 L101.480585,48.9601174 Z M123.05821,42.7332699 C123.381731,42.7332699 123.642818,42.9950657 123.642818,43.3171569 L123.642818,46.937462 C123.642818,47.2605839 123.381731,47.5231526 123.05821,47.5231526 L119.431367,47.5231526 C119.10991,47.5231526 118.847791,47.2605839 118.847791,46.937462 L118.847791,43.3171569 C118.847791,42.9950657 119.10991,42.7332699 119.431367,42.7332699 L123.05821,42.7332699 Z M41.0618778,42.7332699 C41.3850367,42.7332699 41.647845,42.9950657 41.647845,43.3171569 L41.647845,46.937462 C41.647845,47.2605839 41.3850367,47.5231526 41.0618778,47.5231526 L37.437753,47.5231526 C37.1158837,47.5231526 36.8528174,47.2605839 36.8528174,46.937462 L36.8528174,43.3171569 C36.8528174,42.9950657 37.1158837,42.7332699 37.437753,42.7332699 L41.0618778,42.7332699 Z M28.5942901,42.7332699 C28.9177068,42.7332699 29.1807731,42.9950657 29.1807731,43.3171569 L29.1807731,46.937462 C29.1807731,47.2605839 28.9177068,47.5231526 28.5942901,47.5231526 L24.9706811,47.5231526 C24.6482959,47.5231526 24.3857455,47.2605839 24.3857455,46.937462 L24.3857455,43.3171569 C24.3857455,42.9950657 24.6482959,42.7332699 24.9706811,42.7332699 L28.5942901,42.7332699 Z M60.2414725,42.7332699 C60.5648894,42.7332699 60.827956,42.9945644 60.827956,43.3166729 L56.6178634,47.5231526 C56.2959945,47.5231526 56.0329279,47.260312 56.0329279,46.9374305 L56.0329279,43.3166729 C56.0329279,42.9945644 56.2959945,42.7332699 56.6178634,42.7332699 L60.2414725,42.7332699 Z M101.480585,42.7332699 C101.804106,42.7332699 102.065194,42.9950657 102.065194,43.3171569 L102.065194,46.937462 C102.065194,47.2605839 101.804106,47.5231526 101.480585,47.5231526 L97.8537427,47.5231526 C97.5333171,47.5231526 97.2701659,47.2605839 97.2701659,46.937462 L97.2701659,43.3171569 C97.2701659,42.9950657 97.5333171,42.7332699 97.8537427,42.7332699 L101.480585,42.7332699 Z M54.0092951,42.7332699 C54.3328167,42.7332699 54.5944199,42.9950657 54.5944199,43.3171569 L54.5944199,46.937462 C54.5944199,47.2605839 54.3328167,47.5231526 54.0092951,47.5231526 L50.3829687,47.5231526 C50.0609951,47.5231526 49.7993919,47.2605839 49.7993919,46.937462 L54.0092951,42.7332699 Z M17.0871923,42.7332699 C17.4106439,42.7332699 17.6727067,42.9945644 17.6727067,43.3166729 L13.4621617,47.5231526 C13.1402578,47.5231526 12.877679,47.260312 12.877679,46.9374305 L12.877679,43.3166729 C12.877679,42.9945644 13.1402578,42.7332699 13.4621617,42.7332699 L17.0871923,42.7332699 Z M11.3335491,42.7332699 C11.6570703,42.7332699 11.9186735,42.9950657 11.9186735,43.3171569 L11.9186735,46.937462 C11.9186735,47.2605839 11.6570703,47.5231526 11.3335491,47.5231526 L7.7082543,47.5231526 C7.38576512,47.5231526 7.12364587,47.2605839 7.12364587,46.937462 L7.12364587,43.3171569 C7.12364587,42.9950657 7.38576512,42.7332699 7.7082543,42.7332699 L11.3335491,42.7332699 Z M82.2992474,42.7332699 C82.6227342,42.7332699 82.8850829,42.9945644 82.8850829,43.3166729 L78.674085,47.5231526 C78.3521461,47.5231526 78.0900555,47.260312 78.0900555,46.9374305 L78.0900555,43.3166729 C78.0900555,42.9945644 78.3521461,42.7332699 78.674085,42.7332699 L82.2992474,42.7332699 Z M76.0659694,42.7332699 C76.3894563,42.7332699 76.6515469,42.9950657 76.6515469,43.3171569 L76.6515469,46.937462 C76.6515469,47.2605839 76.3894563,47.5231526 76.0659694,47.5231526 L72.440549,47.5231526 C72.1191263,47.5231526 71.8565195,47.2605839 71.8565195,46.937462 L76.0659694,42.7332699 Z M5.09930217,42.7332699 C5.42253059,42.7332699 5.68513758,42.9950657 5.68513758,43.3171569 L5.68513758,46.937462 C5.68513758,47.2605839 5.42253059,47.5231526 5.09930217,47.5231526 L1.47413952,47.5231526 C1.15220092,47.5231526 0.89010989,47.2605839 0.89010989,46.937462 L0.89010989,43.3171569 C0.89010989,42.9950657 1.15220092,42.7332699 1.47413952,42.7332699 L5.09930217,42.7332699 Z M129.290839,39.8593404 C129.614291,39.8593404 129.876354,40.121595 129.876354,40.4431017 L129.876354,44.0636584 C129.876354,44.3867108 129.614291,44.649223 129.290839,44.649223 L125.665809,44.649223 C125.344421,44.649223 125.081327,44.3867108 125.081327,44.0636584 L125.081327,40.4431017 C125.081327,40.121595 125.344421,39.8593404 125.665809,39.8593404 L129.290839,39.8593404 Z M101.480585,36.9854108 C101.804106,36.9854108 102.065194,37.2477078 102.065194,37.568751 L102.065194,41.1904073 C102.065194,41.5135118 101.804106,41.7752934 101.480585,41.7752934 L97.8537427,41.7752934 C97.5333171,41.7752934 97.2701659,41.5135118 97.2701659,41.1904073 L97.2701659,37.568751 C97.2701659,37.2477078 97.5333171,36.9854108 97.8537427,36.9854108 L101.480585,36.9854108 Z M5.09930217,36.9854108 C5.42253059,36.9854108 5.68513758,37.2477078 5.68513758,37.568751 L5.68513758,41.1904073 C5.68513758,41.5135118 5.42253059,41.7752934 5.09930217,41.7752934 L1.47413952,41.7752934 C1.15220092,41.7752934 0.89010989,41.5135118 0.89010989,41.1904073 L0.89010989,37.568751 C0.89010989,37.2477078 1.15220092,36.9854108 1.47413952,36.9854108 L5.09930217,36.9854108 Z M123.05821,36.9854108 C123.381731,36.9854108 123.642818,37.2477078 123.642818,37.568751 L123.642818,41.1904073 C123.642818,41.5135118 123.381731,41.7752934 123.05821,41.7752934 L119.431367,41.7752934 C119.10991,41.7752934 118.847791,41.5135118 118.847791,41.1904073 L118.847791,37.568751 C118.847791,37.2477078 119.10991,36.9854108 119.431367,36.9854108 L123.05821,36.9854108 Z M17.0869344,36.9854108 C17.4106439,36.9854108 17.6727067,37.2477078 17.6727067,37.568751 L17.6727067,41.1904073 C17.6727067,41.5135118 17.4106439,41.7752934 17.0869344,41.7752934 L13.4621617,41.7752934 C13.1402578,41.7752934 12.877679,41.5135118 12.877679,41.1904073 L12.877679,37.568751 C12.877679,37.2477078 13.1402578,36.9854108 13.4621617,36.9854108 L17.0869344,36.9854108 Z M28.5942901,36.9854108 C28.9177068,36.9854108 29.1807731,37.2477078 29.1807731,37.568751 L29.1807731,41.1904073 C29.1807731,41.5135118 28.9177068,41.7752934 28.5942901,41.7752934 L24.9706811,41.7752934 C24.6482959,41.7752934 24.3857455,41.5135118 24.3857455,41.1904073 L24.3857455,37.568751 C24.3857455,37.2477078 24.6482959,36.9854108 24.9706811,36.9854108 L28.5942901,36.9854108 Z M41.0618778,36.9854108 C41.3850367,36.9854108 41.647845,37.2477078 41.647845,37.568751 L41.647845,41.1904073 C41.647845,41.5135118 41.3850367,41.7752934 41.0618778,41.7752934 L37.437753,41.7752934 C37.1158837,41.7752934 36.8528174,41.5135118 36.8528174,41.1904073 L36.8528174,37.568751 C36.8528174,37.2477078 37.1158837,36.9854108 37.437753,36.9854108 L41.0618778,36.9854108 Z M60.2414725,36.9854108 C60.5648894,36.9854108 60.827956,37.2477078 60.827956,37.568751 L60.827956,41.1904073 C60.827956,41.5135118 60.5648894,41.7752934 60.2414725,41.7752934 L56.6178634,41.7752934 C56.2959945,41.7752934 56.0329279,41.5135118 56.0329279,41.1904073 L60.2414725,36.9854108 Z M65.9968643,36.9854108 C66.3203859,36.9854108 66.5819891,37.2472206 66.5819891,37.5682984 L62.3715697,41.7752934 C62.0485643,41.7752934 61.7869611,41.5134836 61.7869611,41.1903444 L61.7869611,37.5682984 C61.7869611,37.2472206 62.0485643,36.9854108 62.3715697,36.9854108 L65.9968643,36.9854108 Z M82.2992474,36.9854108 C82.6224761,36.9854108 82.8850829,37.2477078 82.8850829,37.568751 L82.8850829,41.1904073 C82.8850829,41.5135118 82.6224761,41.7752934 82.2992474,41.7752934 L78.674085,41.7752934 C78.3521461,41.7752934 78.0900555,41.5135118 78.0900555,41.1904073 L82.2992474,36.9854108 Z M88.0528278,36.9854108 C88.3762794,36.9854108 88.6391161,37.2472206 88.6391161,37.5682984 L84.4285715,41.7752934 C84.1061517,41.7752934 83.8440887,41.5134836 83.8440887,41.1903444 L83.8440887,37.5682984 C83.8440887,37.2472206 84.1061517,36.9854108 84.4285715,36.9854108 L88.0528278,36.9854108 Z M60.2414725,30.7585634 C60.5648894,30.7585634 60.827956,31.0207899 60.827956,31.3427771 L60.827956,34.9634595 C60.827956,35.2854468 60.5648894,35.5484461 60.2414725,35.5484461 L56.6178634,35.5484461 C56.2959945,35.5484461 56.0329279,35.2854468 56.0329279,34.9634595 L56.0329279,31.3427771 C56.0329279,31.0207899 56.2959945,30.7585634 56.6178634,30.7585634 L60.2414725,30.7585634 Z M76.0659694,30.7585634 C76.3894563,30.7585634 76.6515469,31.0207899 76.6515469,31.3427771 L76.6515469,34.9634595 C76.6515469,35.2854468 76.3894563,35.5484461 76.0659694,35.5484461 L71.8565195,31.3427771 C71.8565195,31.0207899 72.1191263,30.7585634 72.440549,30.7585634 L76.0659694,30.7585634 Z M82.2992474,30.7585634 C82.6224761,30.7585634 82.8850829,31.0207899 82.8850829,31.3427771 L82.8850829,34.9634595 C82.8850829,35.2854468 82.6224761,35.5484461 82.2992474,35.5484461 L78.674085,35.5484461 C78.3521461,35.5484461 78.0900555,35.2854468 78.0900555,34.9634595 L78.0900555,31.3427771 C78.0900555,31.0207899 78.3521461,30.7585634 78.674085,30.7585634 L82.2992474,30.7585634 Z M84.4285715,30.7585634 L88.6391161,34.9634595 C88.6391161,35.2854468 88.3760213,35.5484461 88.0528278,35.5484461 L84.4285715,35.5484461 C84.1061517,35.5484461 83.8440887,35.2854468 83.8440887,34.9634595 L83.8440887,31.3427771 C83.8440887,31.0207899 84.1061517,30.7585634 84.4285715,30.7585634 Z M5.09930217,30.7585634 C5.42253059,30.7585634 5.68513758,31.0207899 5.68513758,31.3427771 L5.68513758,34.9634595 C5.68513758,35.2854468 5.42253059,35.5484461 5.09930217,35.5484461 L1.47413952,35.5484461 C1.15220092,35.5484461 0.89010989,35.2854468 0.89010989,34.9634595 L5.09930217,30.7585634 Z M13.4621617,30.7585634 L17.6727067,34.9634595 C17.6727067,35.2854468 17.4106439,35.5484461 17.0869344,35.5484461 L13.4621617,35.5484461 C13.1402578,35.5484461 12.877679,35.2854468 12.877679,34.9634595 L12.877679,31.3427771 C12.877679,31.0207899 13.1402578,30.7585634 13.4621617,30.7585634 Z M41.0618778,30.7585634 C41.3850367,30.7585634 41.647845,31.0207899 41.647845,31.3427771 L41.647845,34.9634595 C41.647845,35.2854468 41.3850367,35.5484461 41.0618778,35.5484461 L37.437753,35.5484461 C37.1158837,35.5484461 36.8528174,35.2854468 36.8528174,34.9634595 L41.0618778,30.7585634 Z M54.0092951,30.7585634 C54.3328167,30.7585634 54.5944199,31.0207899 54.5944199,31.3427771 L54.5944199,34.9634595 C54.5944199,35.2854468 54.3328167,35.5484461 54.0092951,35.5484461 L49.7993919,31.3427771 C49.7993919,31.0207899 50.0609951,30.7585634 50.3829687,30.7585634 L54.0092951,30.7585634 Z M101.480585,30.7585634 C101.804106,30.7585634 102.065194,31.0207899 102.065194,31.3427771 L102.065194,34.9634595 C102.065194,35.2854468 101.804106,35.5484461 101.480585,35.5484461 L97.8537427,35.5484461 C97.5333171,35.5484461 97.2701659,35.2854468 97.2701659,34.9634595 L101.480585,30.7585634 Z M24.9706811,30.7585634 L29.1807731,34.9634595 C29.1807731,35.2854468 28.9177068,35.5484461 28.5942901,35.5484461 L24.9706811,35.5484461 C24.6482959,35.5484461 24.3857455,35.2854468 24.3857455,34.9634595 L24.3857455,31.3427771 C24.3857455,31.0207899 24.6482959,30.7585634 24.9706811,30.7585634 Z M11.3335491,30.7585634 C11.6570703,30.7585634 11.9186735,31.0207899 11.9186735,31.3427771 L11.9186735,34.9634595 C11.9186735,35.2854468 11.6570703,35.5484461 11.3335491,35.5484461 L7.7082543,35.5484461 C7.38576512,35.5484461 7.12364587,35.2854468 7.12364587,34.9634595 L7.12364587,31.3427771 C7.12364587,31.0207899 7.38576512,30.7585634 7.7082543,30.7585634 L11.3335491,30.7585634 Z M123.05821,30.7585634 C123.381731,30.7585634 123.642818,31.0207899 123.642818,31.3427771 L123.642818,34.9634595 C123.642818,35.2854468 123.381731,35.5484461 123.05821,35.5484461 L119.431367,35.5484461 C119.10991,35.5484461 118.847791,35.2854468 118.847791,34.9634595 L123.05821,30.7585634 Z M129.290839,30.7585634 C129.614291,30.7585634 129.876354,31.0207899 129.876354,31.3427771 L129.876354,34.9634595 C129.876354,35.2854468 129.614291,35.5484461 129.290839,35.5484461 L125.665809,35.5484461 C125.344421,35.5484461 125.081327,35.2854468 125.081327,34.9634595 L125.081327,31.3427771 C125.081327,31.0207899 125.344421,30.7585634 125.665809,30.7585634 L129.290839,30.7585634 Z M131.898439,30.7585634 L136.10989,34.9634595 C136.10989,35.2854468 135.847771,35.5484461 135.52425,35.5484461 L131.898439,35.5484461 C131.57595,35.5484461 131.314863,35.2854468 131.314863,34.9634595 L131.314863,31.3427771 C131.314863,31.0207899 131.57595,30.7585634 131.898439,30.7585634 Z M62.3715697,30.7585634 L66.5819891,34.9634595 C66.5819891,35.2854468 66.3203859,35.5484461 65.9968643,35.5484461 L62.3715697,35.5484461 C62.0485643,35.5484461 61.7869611,35.2854468 61.7869611,34.9634595 L61.7869611,31.3427771 C61.7869611,31.0207899 62.0485643,30.7585634 62.3715697,30.7585634 Z M5.1000761,18.7838568 C5.42253059,18.7838568 5.68513758,19.0456385 5.68513758,19.3677124 L5.68513758,22.988338 C5.68513758,23.3114425 5.42253059,23.5737395 5.1000761,23.5737395 L1.47413952,23.5737395 C1.15220092,23.5737395 0.89010989,23.3114425 0.89010989,22.988338 L0.89010989,19.3677124 C0.89010989,19.0456385 1.15220092,18.7838568 1.47413952,18.7838568 L5.1000761,18.7838568 Z M123.05821,18.7838568 C123.381731,18.7838568 123.642818,19.0456385 123.642818,19.3677124 L123.642818,22.988338 C123.642818,23.3114425 123.381731,23.5737395 123.05821,23.5737395 L119.431367,23.5737395 C119.10991,23.5737395 118.847791,23.3114425 118.847791,22.988338 L118.847791,19.3677124 C118.847791,19.0456385 119.10991,18.7838568 119.431367,18.7838568 L123.05821,18.7838568 Z M113.467122,18.7838568 C113.790644,18.7838568 114.052763,19.0456385 114.052763,19.3677124 L114.052763,22.988338 C114.052763,23.3114425 113.790644,23.5737395 113.467122,23.5737395 L109.842344,23.5737395 C109.518823,23.5737395 109.257735,23.3114425 109.257735,22.988338 L109.257735,19.3677124 C109.257735,19.0456385 109.518823,18.7838568 109.842344,18.7838568 L113.467122,18.7838568 Z M101.480585,18.7838568 C101.804106,18.7838568 102.065194,19.0456385 102.065194,19.3677124 L102.065194,22.988338 C102.065194,23.3114425 101.804106,23.5737395 101.480585,23.5737395 L97.8537427,23.5737395 C97.5322853,23.5737395 97.2701659,23.3114425 97.2701659,22.988338 L97.2701659,19.3677124 C97.2701659,19.0456385 97.5322853,18.7838568 97.8537427,18.7838568 L101.480585,18.7838568 Z M54.0085843,18.7838568 C54.3323287,18.7838568 54.5944199,19.0456385 54.5944199,19.3677124 L54.5944199,22.988338 C54.5944199,23.3114425 54.3323287,23.5737395 54.0085843,23.5737395 L49.7993919,19.3677124 C49.7993919,19.0456385 50.0619993,18.7838568 50.383422,18.7838568 L54.0085843,18.7838568 Z M47.7753693,18.7838568 C48.0988209,18.7838568 48.3608839,19.0456385 48.3608839,19.3677124 L48.3608839,22.988338 C48.3608839,23.3114425 48.0988209,23.5737395 47.7753693,23.5737395 L44.1503388,23.5737395 C43.8284348,23.5737395 43.5658561,23.3114425 43.5658561,22.988338 L43.5658561,19.3677124 C43.5658561,19.0456385 43.8284348,18.7838568 44.1503388,18.7838568 L47.7753693,18.7838568 Z M56.1374552,18.7838568 L60.3484531,22.988338 C60.3484531,23.3114425 60.0858463,23.5737395 59.7623594,23.5737395 L56.1374552,23.5737395 C55.8155163,23.5737395 55.5534251,23.3114425 55.5534251,22.988338 L55.5534251,19.3677124 C55.5534251,19.0456385 55.8155163,18.7838568 56.1374552,18.7838568 Z M135.52425,18.7838568 C135.847771,18.7838568 136.10989,19.0456385 136.10989,19.3677124 L136.10989,22.988338 C136.10989,23.3114425 135.847771,23.5737395 135.52425,23.5737395 L131.314863,19.3677124 C131.314863,19.0456385 131.57595,18.7838568 131.898439,18.7838568 L135.52425,18.7838568 Z M91.4103791,18.7838568 C91.7338307,18.7838568 91.9956356,19.0456385 91.9956356,19.3677124 L87.7850903,23.5737395 C87.4626705,23.5737395 87.2006081,23.3114425 87.2006081,22.988338 L87.2006081,19.3677124 C87.2006081,19.0456385 87.4626705,18.7838568 87.7850903,18.7838568 L91.4103791,18.7838568 Z M85.6553141,18.7838568 C85.9785076,18.7838568 86.2416024,19.0456385 86.2416024,19.3677124 L86.2416024,22.988338 C86.2416024,23.3114425 85.9785076,23.5737395 85.6553141,23.5737395 L82.0315733,23.5737395 C81.7086373,23.5737395 81.4465749,23.3114425 81.4465749,22.988338 L81.4465749,19.3677124 C81.4465749,19.0456385 81.7086373,18.7838568 82.0315733,18.7838568 L85.6553141,18.7838568 Z M79.4222308,18.7838568 C79.7454595,18.7838568 80.0080664,19.0456385 80.0080664,19.3677124 L80.0080664,22.988338 C80.0080664,23.3114425 79.7454595,23.5737395 79.4222308,23.5737395 L75.2130389,19.3677124 C75.2130389,19.0456385 75.4751295,18.7838568 75.7970684,18.7838568 L79.4222308,18.7838568 Z M69.8325598,18.7838568 C70.1559767,18.7838568 70.4180109,19.0456385 70.4180109,19.3677124 L70.4180109,22.988338 C70.4180109,23.3114425 70.1559767,23.5737395 69.8325598,23.5737395 L66.2071452,23.5737395 C65.8852757,23.5737395 65.6229834,23.3114425 65.6229834,22.988338 L65.6229834,19.3677124 C65.6229834,19.0456385 65.8852757,18.7838568 66.2071452,18.7838568 L69.8325598,18.7838568 Z M17.0875823,18.7838568 C17.4111035,18.7838568 17.6727067,19.0456385 17.6727067,19.3677124 L17.6727067,22.988338 C17.6727067,23.3114425 17.4111035,23.5737395 17.0875823,23.5737395 L13.4612555,23.5737395 C13.1392823,23.5737395 12.877679,23.3114425 12.877679,22.988338 L12.877679,19.3677124 C12.877679,19.0456385 13.1392823,18.7838568 13.4612555,18.7838568 L17.0875823,18.7838568 Z M27.1564294,18.7838568 C27.4796579,18.7838568 27.7422648,19.0456385 27.7422648,19.3677124 L27.7422648,22.988338 C27.7422648,23.3114425 27.4796579,23.5737395 27.1564294,23.5737395 L23.5312668,23.5737395 C23.2093282,23.5737395 22.9472372,23.3114425 22.9472372,22.988338 L22.9472372,19.3677124 C22.9472372,19.0456385 23.2093282,18.7838568 23.5312668,18.7838568 L27.1564294,18.7838568 Z M5.1000761,12.5570094 C5.42253059,12.5570094 5.68513758,12.8188334 5.68513758,13.1404438 L5.68513758,16.7616538 C5.68513758,17.0848105 5.42253059,17.3468921 5.1000761,17.3468921 L1.47413952,17.3468921 C1.15220092,17.3468921 0.89010989,17.0848105 0.89010989,16.7616538 L0.89010989,13.1404438 C0.89010989,12.8188334 1.15220092,12.5570094 1.47413952,12.5570094 L5.1000761,12.5570094 Z M11.3326433,12.5570094 C11.6560948,12.5570094 11.9186735,12.8188334 11.9186735,13.1404438 L11.9186735,16.7616538 C11.9186735,17.0848105 11.6560948,17.3468921 11.3326433,17.3468921 L7.70812855,17.3468921 C7.38570868,17.3468921 7.12364587,17.0848105 7.12364587,16.7616538 L7.12364587,13.1404438 C7.12364587,12.8188334 7.38570868,12.5570094 7.70812855,12.5570094 L11.3326433,12.5570094 Z M17.0875823,12.5570094 C17.4111035,12.5570094 17.6727067,12.8188334 17.6727067,13.1404438 L17.6727067,16.7616538 C17.6727067,17.0848105 17.4111035,17.3468921 17.0875823,17.3468921 L13.4612555,17.3468921 C13.1392823,17.3468921 12.877679,17.0848105 12.877679,16.7616538 L12.877679,13.1404438 C12.877679,12.8188334 13.1392823,12.5570094 13.4612555,12.5570094 L17.0875823,12.5570094 Z M27.1564294,12.5570094 C27.4796579,12.5570094 27.7422648,12.8177885 27.7422648,13.1404124 L27.7422648,16.7614276 C27.7422648,17.0840515 27.4796579,17.3468921 27.1564294,17.3468921 L23.5312668,17.3468921 C23.2093282,17.3468921 22.9472372,17.0840515 22.9472372,16.7614276 L22.9472372,13.1404124 C22.9472372,12.8177885 23.2093282,12.5570094 23.5312668,12.5570094 L27.1564294,12.5570094 Z M32.9102677,12.5570094 C33.2337193,12.5570094 33.496298,12.8177885 33.496298,13.1404124 L29.285753,17.3468921 C28.9633332,17.3468921 28.7012703,17.0837938 28.7012703,16.7614276 L28.7012703,13.1404124 C28.7012703,12.8177885 28.9633332,12.5570094 29.285753,12.5570094 L32.9102677,12.5570094 Z M101.480585,12.5570094 C101.804106,12.5570094 102.065194,12.8188334 102.065194,13.1404438 L102.065194,16.7616538 C102.065194,17.0848105 101.804106,17.3468921 101.480585,17.3468921 L97.8537427,17.3468921 C97.5322853,17.3468921 97.2701659,17.0848105 97.2701659,16.7616538 L97.2701659,13.1404438 C97.2701659,12.8188334 97.5322853,12.5570094 97.8537427,12.5570094 L101.480585,12.5570094 Z M69.8325598,12.5570094 C70.1559767,12.5570094 70.4180109,12.8188334 70.4180109,13.1404438 L70.4180109,16.7616538 C70.4180109,17.0848105 70.1559767,17.3468921 69.8325598,17.3468921 L66.2071452,17.3468921 C65.8852757,17.3468921 65.6229834,17.0848105 65.6229834,16.7616538 L65.6229834,13.1404438 C65.6229834,12.8188334 65.8852757,12.5570094 66.2071452,12.5570094 L69.8325598,12.5570094 Z M107.232939,12.5570094 C107.556132,12.5570094 107.819227,12.8188334 107.819227,13.1404438 L107.819227,16.7616538 C107.819227,17.0848105 107.556132,17.3468921 107.232939,17.3468921 L103.608682,17.3468921 C103.286262,17.3468921 103.024199,17.0848105 103.024199,16.7616538 L103.024199,13.1404438 C103.024199,12.8188334 103.286262,12.5570094 103.608682,12.5570094 L107.232939,12.5570094 Z M54.0085843,12.5570094 C54.3323287,12.5570094 54.5944199,12.8188334 54.5944199,13.1404438 L54.5944199,16.7616538 C54.5944199,17.0848105 54.3323287,17.3468921 54.0085843,17.3468921 L50.383422,17.3468921 C50.0619993,17.3468921 49.7993919,17.0848105 49.7993919,16.7616538 L49.7993919,13.1404438 C49.7993919,12.8188334 50.0619993,12.5570094 50.383422,12.5570094 L54.0085843,12.5570094 Z M129.290839,12.5570094 C129.614291,12.5570094 129.876354,12.8188334 129.876354,13.1404438 L129.876354,16.7616538 C129.876354,17.0848105 129.614291,17.3468921 129.290839,17.3468921 L125.081327,13.1404438 C125.081327,12.8188334 125.344421,12.5570094 125.665809,12.5570094 L129.290839,12.5570094 Z M123.05821,12.5570094 C123.381731,12.5570094 123.642818,12.8188334 123.642818,13.1404438 L123.642818,16.7616538 C123.642818,17.0848105 123.381731,17.3468921 123.05821,17.3468921 L119.431367,17.3468921 C119.10991,17.3468921 118.847791,17.0848105 118.847791,16.7616538 L118.847791,13.1404438 C118.847791,12.8188334 119.10991,12.5570094 119.431367,12.5570094 L123.05821,12.5570094 Z M113.467122,12.5570094 C113.790644,12.5570094 114.052763,12.8188334 114.052763,13.1404438 L114.052763,16.7616538 C114.052763,17.0848105 113.790644,17.3468921 113.467122,17.3468921 L109.842344,17.3468921 C109.518823,17.3468921 109.257735,17.0848105 109.257735,16.7616538 L109.257735,13.1404438 C109.257735,12.8188334 109.518823,12.5570094 109.842344,12.5570094 L113.467122,12.5570094 Z M79.4222308,12.5570094 C79.7454595,12.5570094 80.0080664,12.8188334 80.0080664,13.1404438 L80.0080664,16.7616538 C80.0080664,17.0848105 79.7454595,17.3468921 79.4222308,17.3468921 L75.7970684,17.3468921 C75.4751295,17.3468921 75.2130389,17.0848105 75.2130389,16.7616538 L75.2130389,13.1404438 C75.2130389,12.8188334 75.4751295,12.5570094 75.7970684,12.5570094 L79.4222308,12.5570094 Z M47.7753693,12.5570094 C48.0988209,12.5570094 48.3608839,12.8188334 48.3608839,13.1404438 L48.3608839,16.7616538 C48.3608839,17.0848105 48.0988209,17.3468921 47.7753693,17.3468921 L44.1503388,17.3468921 C43.8284348,17.3468921 43.5658561,17.0848105 43.5658561,16.7616538 L43.5658561,13.1404438 C43.5658561,12.8188334 43.8284348,12.5570094 44.1503388,12.5570094 L47.7753693,12.5570094 Z M59.7623594,12.5570094 C60.0858463,12.5570094 60.3484531,12.8188193 60.3484531,13.1404124 L56.1374552,17.3468921 C55.8155163,17.3468921 55.5534251,17.0845669 55.5534251,16.7616853 L55.5534251,13.1404124 C55.5534251,12.8188193 55.8155163,12.5570094 56.1374552,12.5570094 L59.7623594,12.5570094 Z M135.52425,12.5570094 C135.847771,12.5570094 136.10989,12.8188334 136.10989,13.1404438 L136.10989,16.7616538 C136.10989,17.0848105 135.847771,17.3468921 135.52425,17.3468921 L131.898439,17.3468921 C131.57595,17.3468921 131.314863,17.0848105 131.314863,16.7616538 L131.314863,13.1404438 C131.314863,12.8188334 131.57595,12.5570094 131.898439,12.5570094 L135.52425,12.5570094 Z M5.1000761,6.80915033 C5.42253059,6.80915033 5.68513758,7.07147546 5.68513758,7.39255325 L5.68513758,11.0140838 C5.68513758,11.3372231 5.42253059,11.5990329 5.1000761,11.5990329 L1.47413952,11.5990329 C1.15220092,11.5990329 0.89010989,11.3372231 0.89010989,11.0140838 L0.89010989,7.39255325 C0.89010989,7.07147546 1.15220092,6.80915033 1.47413952,6.80915033 L5.1000761,6.80915033 Z M17.0875823,6.80915033 C17.4111035,6.80915033 17.6727067,7.07147546 17.6727067,7.39255325 L17.6727067,11.0140838 C17.6727067,11.3372231 17.4111035,11.5990329 17.0875823,11.5990329 L13.4612555,11.5990329 C13.1392823,11.5990329 12.877679,11.3372231 12.877679,11.0140838 L12.877679,7.39255325 C12.877679,7.07147546 13.1392823,6.80915033 13.4612555,6.80915033 L17.0875823,6.80915033 Z M59.7623594,6.80915033 C60.0858463,6.80915033 60.3484531,7.07147546 60.3484531,7.39255325 L60.3484531,11.0140838 C60.3484531,11.3372231 60.0858463,11.5990329 59.7623594,11.5990329 L56.1374552,11.5990329 C55.8155163,11.5990329 55.5534251,11.3372231 55.5534251,11.0140838 L55.5534251,7.39255325 C55.5534251,7.07147546 55.8155163,6.80915033 56.1374552,6.80915033 L59.7623594,6.80915033 Z M79.4222308,6.80915033 C79.7454595,6.80915033 80.0080664,7.07147546 80.0080664,7.39255325 L80.0080664,11.0140838 C80.0080664,11.3372231 79.7454595,11.5990329 79.4222308,11.5990329 L75.7970684,11.5990329 C75.4751295,11.5990329 75.2130389,11.3372231 75.2130389,11.0140838 L75.2130389,7.39255325 C75.2130389,7.07147546 75.4751295,6.80915033 75.7970684,6.80915033 L79.4222308,6.80915033 Z M101.480585,6.80915033 C101.804106,6.80915033 102.065194,7.07147546 102.065194,7.39255325 L102.065194,11.0140838 C102.065194,11.3372231 101.804106,11.5990329 101.480585,11.5990329 L97.8537427,11.5990329 C97.5322853,11.5990329 97.2701659,11.3372231 97.2701659,11.0140838 L97.2701659,7.39255325 C97.2701659,7.07147546 97.5322853,6.80915033 97.8537427,6.80915033 L101.480585,6.80915033 Z M113.467122,6.80915033 C113.790644,6.80915033 114.052763,7.07147546 114.052763,7.39255325 L114.052763,11.0140838 C114.052763,11.3372231 113.790644,11.5990329 113.467122,11.5990329 L109.842344,11.5990329 C109.518823,11.5990329 109.257735,11.3372231 109.257735,11.0140838 L109.257735,7.39255325 C109.257735,7.07147546 109.518823,6.80915033 109.842344,6.80915033 L113.467122,6.80915033 Z M123.05821,6.80915033 C123.381731,6.80915033 123.642818,7.07044474 123.642818,7.39255325 L123.642818,11.0140838 C123.642818,11.3361924 123.381731,11.5990329 123.05821,11.5990329 L119.431367,11.5990329 C119.10991,11.5990329 118.847791,11.3361924 118.847791,11.0140838 L118.847791,7.39255325 C118.847791,7.07044474 119.10991,6.80915033 119.431367,6.80915033 L123.05821,6.80915033 Z M47.7753693,6.80915033 C48.0988209,6.80915033 48.3608839,7.07147546 48.3608839,7.39255325 L48.3608839,11.0140838 C48.3608839,11.3372231 48.0988209,11.5990329 47.7753693,11.5990329 L44.1503388,11.5990329 C43.8284348,11.5990329 43.5658561,11.3372231 43.5658561,11.0140838 L43.5658561,7.39255325 C43.5658561,7.07147546 43.8284348,6.80915033 44.1503388,6.80915033 L47.7753693,6.80915033 Z M125.665809,6.80915033 L129.876354,11.0140838 C129.876354,11.3361924 129.614291,11.5990329 129.290839,11.5990329 L125.665809,11.5990329 C125.344421,11.5990329 125.081327,11.3361924 125.081327,11.0140838 L125.081327,7.39255325 C125.081327,7.07044474 125.344421,6.80915033 125.665809,6.80915033 Z M135.52425,6.80915033 C135.847771,6.80915033 136.10989,7.07044474 136.10989,7.39255325 L136.10989,11.0140838 C136.10989,11.3361924 135.847771,11.5990329 135.52425,11.5990329 L131.898439,11.5990329 C131.57595,11.5990329 131.314863,11.3361924 131.314863,11.0140838 L131.314863,7.39255325 C131.314863,7.07044474 131.57595,6.80915033 131.898439,6.80915033 L135.52425,6.80915033 Z M27.1564294,6.33016204 C27.4796579,6.33016204 27.7422648,6.59194369 27.7422648,6.91350225 L27.7422648,10.5341279 C27.7422648,10.8572324 27.4796579,11.1200447 27.1564294,11.1200447 L23.5312668,11.1200447 C23.2093282,11.1200447 22.9472372,10.8572324 22.9472372,10.5341279 L22.9472372,6.91350225 C22.9472372,6.59194369 23.2093282,6.33016204 23.5312668,6.33016204 L27.1564294,6.33016204 Z M32.9102677,0.582302897 C33.2334614,0.582302897 33.496298,0.844613968 33.496298,1.16567447 L33.496298,4.78701023 C33.496298,5.11013212 33.2334614,5.37218552 32.9102677,5.37218552 L29.285753,5.37218552 C28.9633332,5.37218552 28.7012703,5.11013212 28.7012703,4.78701023 L28.7012703,1.16567447 C28.7012703,0.844613968 28.9633332,0.582302897 29.285753,0.582302897 L32.9102677,0.582302897 Z M11.3326433,0.582302897 C11.6560948,0.582302897 11.9186735,0.844599858 11.9186735,1.16615841 L11.9186735,4.78729937 C11.9186735,5.11040387 11.6560948,5.37218552 11.3326433,5.37218552 L7.70812855,5.37218552 C7.38570868,5.37218552 7.12364587,5.11040387 7.12364587,4.78729937 L7.12364587,1.16615841 C7.12364587,0.844599858 7.38570868,0.582302897 7.70812855,0.582302897 L11.3326433,0.582302897 Z M5.1000761,0.582302897 C5.42253059,0.582302897 5.68513758,0.844599858 5.68513758,1.16615841 L5.68513758,4.78729937 C5.68513758,5.11040387 5.42253059,5.37218552 5.1000761,5.37218552 L1.47413952,5.37218552 C1.15220092,5.37218552 0.89010989,5.11040387 0.89010989,4.78729937 L5.1000761,0.582302897 Z M13.4612555,0.582302897 L17.6727067,4.78729937 C17.6727067,5.11040387 17.4111035,5.37218552 17.0875823,5.37218552 L13.4612555,5.37218552 C13.1392823,5.37218552 12.877679,5.11040387 12.877679,4.78729937 L12.877679,1.16615841 C12.877679,0.844599858 13.1392823,0.582302897 13.4612555,0.582302897 Z M27.1564294,0.582302897 C27.4796579,0.582302897 27.7422648,0.844613968 27.7422648,1.16567447 L27.7422648,4.78701023 C27.7422648,5.11013212 27.4796579,5.37218552 27.1564294,5.37218552 L23.5312668,5.37218552 C23.2093282,5.37218552 22.9472372,5.11013212 22.9472372,4.78701023 L22.9472372,1.16567447 C22.9472372,0.844613968 23.2093282,0.582302897 23.5312668,0.582302897 L27.1564294,0.582302897 Z M54.0085843,0.582302897 C54.3323287,0.582302897 54.5944199,0.844140879 54.5944199,1.16628407 L54.5944199,4.78820435 C54.5944199,5.11034753 54.3323287,5.37218552 54.0085843,5.37218552 L50.383422,5.37218552 C50.0619993,5.37218552 49.7993919,5.11034753 49.7993919,4.78820435 L49.7993919,1.16628407 C49.7993919,0.844140879 50.0619993,0.582302897 50.383422,0.582302897 L54.0085843,0.582302897 Z M56.1374552,0.582302897 L60.3484531,4.78820435 C60.3484531,5.11034753 60.0858463,5.37218552 59.7623594,5.37218552 L56.1374552,5.37218552 C55.8155163,5.37218552 55.5534251,5.11034753 55.5534251,4.78820435 L55.5534251,1.16628407 C55.5534251,0.844140879 55.8155163,0.582302897 56.1374552,0.582302897 Z M47.7753693,0.582302897 C48.0988209,0.582302897 48.3608839,0.844140879 48.3608839,1.16628407 L48.3608839,4.78820435 C48.3608839,5.11034753 48.0988209,5.37218552 47.7753693,5.37218552 L44.1503388,5.37218552 C43.8284348,5.37218552 43.5658561,5.11034753 43.5658561,4.78820435 L47.7753693,0.582302897 Z M69.8325598,0.582302897 C70.1559767,0.582302897 70.4180109,0.844140879 70.4180109,1.16628407 L70.4180109,4.78820435 C70.4180109,5.11034753 70.1559767,5.37218552 69.8325598,5.37218552 L66.2071452,5.37218552 C65.8852757,5.37218552 65.6229834,5.11034753 65.6229834,4.78820435 L65.6229834,1.16628407 C65.6229834,0.844140879 65.8852757,0.582302897 66.2071452,0.582302897 L69.8325598,0.582302897 Z M79.4222308,0.582302897 C79.7454595,0.582302897 80.0080664,0.844599858 80.0080664,1.16615841 L80.0080664,4.78729937 C80.0080664,5.11040387 79.7454595,5.37218552 79.4222308,5.37218552 L75.7970684,5.37218552 C75.4751295,5.37218552 75.2130389,5.11040387 75.2130389,4.78729937 L79.4222308,0.582302897 Z M85.6553141,0.582302897 C85.9785076,0.582302897 86.2416024,0.844599858 86.2416024,1.16615841 L86.2416024,4.78729937 C86.2416024,5.11040387 85.9785076,5.37218552 85.6553141,5.37218552 L82.0315733,5.37218552 C81.7086373,5.37218552 81.4465749,5.11040387 81.4465749,4.78729937 L81.4465749,1.16615841 C81.4465749,0.844599858 81.7086373,0.582302897 82.0315733,0.582302897 L85.6553141,0.582302897 Z M87.7850903,0.582302897 L91.9956356,4.78729937 C91.9956356,5.11040387 91.7335726,5.37218552 91.410121,5.37218552 L87.7850903,5.37218552 C87.4626705,5.37218552 87.2006081,5.11040387 87.2006081,4.78729937 L87.2006081,1.16615841 C87.2006081,0.844599858 87.4626705,0.582302897 87.7850903,0.582302897 Z M107.232939,0.582302897 C107.556132,0.582302897 107.819227,0.844599858 107.819227,1.16615841 L107.819227,4.78729937 C107.819227,5.11040387 107.556132,5.37218552 107.232939,5.37218552 L103.608682,5.37218552 C103.286262,5.37218552 103.024199,5.11040387 103.024199,4.78729937 L103.024199,1.16615841 C103.024199,0.844599858 103.286262,0.582302897 103.608682,0.582302897 L107.232939,0.582302897 Z M101.480585,0.582302897 C101.804106,0.582302897 102.065194,0.844599858 102.065194,1.16615841 L102.065194,4.78729937 C102.065194,5.11040387 101.804106,5.37218552 101.480585,5.37218552 L97.8537427,5.37218552 C97.5322853,5.37218552 97.2701659,5.11040387 97.2701659,4.78729937 L101.480585,0.582302897 Z M109.842344,0.582302897 L114.052763,4.78729937 C114.052763,5.11040387 113.790644,5.37218552 113.467122,5.37218552 L109.842344,5.37218552 C109.518823,5.37218552 109.257735,5.11040387 109.257735,4.78729937 L109.257735,1.16615841 C109.257735,0.844599858 109.518823,0.582302897 109.842344,0.582302897 Z M119.431367,0.582302897 L123.642818,4.78820435 C123.642818,5.11034753 123.381731,5.37218552 123.05821,5.37218552 L119.431367,5.37218552 C119.10991,5.37218552 118.847791,5.11034753 118.847791,4.78820435 L118.847791,1.16499549 C118.847791,0.844140879 119.10991,0.582302897 119.431367,0.582302897 Z M135.52425,0.582302897 C135.847771,0.582302897 136.10989,0.844140879 136.10989,1.16499549 L136.10989,4.78820435 C136.10989,5.11034753 135.847771,5.37218552 135.52425,5.37218552 L131.898439,5.37218552 C131.57595,5.37218552 131.314863,5.11034753 131.314863,4.78820435 L131.314863,1.16499549 C131.314863,0.844140879 131.57595,0.582302897 131.898439,0.582302897 L135.52425,0.582302897 Z M39.0829848,0.25 C39.3994566,0.25 39.6558644,0.518185528 39.6558644,0.846436184 L35.5361785,5.1468886 C35.2212209,5.1468886 34.9643084,4.87922996 34.9643084,4.54860831 L34.9643084,0.846436184 C34.9643084,0.518185528 35.2212209,0.25 35.5361785,0.25 L39.0829848,0.25 Z" id="Combined-Shape"></path>
        </g>
    </g>
</svg>