<?xml version="1.0" encoding="UTF-8"?>
<svg width="135px" height="96px" viewBox="0 0 135 96" version="1.1" xmlns="http://www.w3.org/2000/svg" xmlns:xlink="http://www.w3.org/1999/xlink">
    <title>bizzylabs</title>
    <g id="bizzylabs" stroke="none" stroke-width="1" fill="none" fill-rule="evenodd">
        <g id="Group" transform="translate(0.000000, 0.500000)" fill="#000000" fill-rule="nonzero">
            <rect id="Rectangle" x="33.7789203" y="47.5681234" width="8.6529563" height="31.1876607"></rect>
            <path d="M72.4164524,52.2416452 L72.4164524,47.5218509 L46.4575835,47.5218509 L46.4575835,55.2956298 L63.1619537,55.2956298 C62.1902314,55.2956298 52.6118252,63.3470437 48.4473008,68.4832905 C47.1979434,70.0102828 46.503856,71.9537275 46.503856,73.9897172 L46.503856,78.7095116 L72.4627249,78.7095116 L72.4627249,70.9357326 C72.4627249,70.9357326 54.5089974,70.9357326 55.7583548,70.9357326 C56.7300771,70.9357326 66.3084833,63.1619537 70.5192802,58.0719794 C71.722365,56.4987147 72.4164524,54.277635 72.4164524,52.2416452 Z" id="Path"></path>
            <path d="M100.966581,52.2416452 L100.966581,47.5218509 L75.0077121,47.5218509 L75.0077121,55.2956298 L91.7120823,55.2956298 C90.7403599,55.2956298 81.1619537,63.3470437 76.9974293,68.4832905 C75.748072,70.0102828 75.0539846,71.9537275 75.0539846,73.9897172 L75.0539846,78.7095116 L101.012853,78.7095116 L101.012853,70.9357326 C101.012853,70.9357326 83.059126,70.9357326 84.3084833,70.9357326 C85.2802057,70.9357326 94.8586118,63.1619537 99.0694087,58.0719794 C100.272494,56.4987147 100.966581,54.277635 100.966581,52.2416452 Z" id="Path"></path>
            <path d="M125.907455,47.5681234 C125.907455,47.5681234 123.084833,63.3470437 119.151671,70.0565553 C115.079692,63.3007712 112.395887,47.5681234 112.395887,47.5681234 L103.557841,47.5681234 C106.056555,66.5861183 113.830334,78.6632391 113.830334,78.6632391 C113.830334,78.6632391 109.712082,84.5398458 100.966581,85.6503856 L100.966581,94.3033419 C128.544987,94.3033419 134.282776,51.0848329 134.745501,47.5681234 L125.907455,47.5681234 Z" id="Path"></path>
            <path d="M15.5938303,46.7352185 C11.1053985,46.7352185 8.6529563,49.0488432 8.6529563,49.0488432 L8.6529563,31.9280206 L0,31.9280206 L0,63.3007712 C0,73.7120823 7.31105398,79.5886889 15.5938303,79.5886889 C24.2005141,79.5886889 31.1876607,72.2313625 31.1876607,63.1619537 C31.1876607,54.1388175 24.2005141,46.7352185 15.5938303,46.7352185 Z M15.5938303,70.9357326 C11.2904884,70.9357326 7.82005141,67.4652956 7.82005141,63.1619537 C7.82005141,58.8586118 11.2904884,55.3881748 15.5938303,55.3881748 C19.8971722,55.3881748 23.3676093,58.8586118 23.3676093,63.1619537 C23.3676093,67.4652956 19.8971722,70.9357326 15.5938303,70.9357326 Z" id="Shape"></path>
            <path d="M113.969152,18.6015424 C113.413882,17.8611825 100.457584,0 77.9228792,0 C67.2339332,0 56.3136247,4.07197943 47.9383033,11.2442159 C44.2365039,14.3907455 41.1825193,18 38.9151671,21.840617 C36.0462725,16.1028278 31.4190231,11.3367609 24.8946015,7.12596401 L20.1748072,14.344473 C20.2210797,14.344473 20.2210797,14.3907455 20.2673522,14.3907455 L20.0359897,14.714653 C29.8457584,21.0539846 33.8714653,28.2724936 33.8714653,39.748072 L42.5244216,39.748072 C42.5244216,39.6092545 42.5244216,39.470437 42.5244216,39.3316195 L42.6169666,39.3316195 C42.6169666,37.2030848 42.8946015,35.0745501 43.4498715,32.9922879 C44.9768638,27.5321337 48.4010283,22.4421594 53.3984576,18.18509 C60.2467866,12.3547558 69.1311054,9.02313625 77.7840617,9.02313625 C95.7377892,9.02313625 106.70437,23.8766067 106.796915,24.0154242 L110.313625,21.470437 L113.830334,18.9717224 C113.784062,18.9254499 113.737789,18.8791774 113.691517,18.7403599 L113.969152,18.6015424 Z" id="Path"></path>
            <circle id="Oval" cx="118.550129" cy="34.5192802" r="8.6529563"></circle>
        </g>
    </g>
</svg>