<?xml version="1.0" encoding="UTF-8"?>
<svg width="135px" height="96px" viewBox="0 0 135 96" version="1.1" xmlns="http://www.w3.org/2000/svg" xmlns:xlink="http://www.w3.org/1999/xlink">
    <title>Booking</title>
    <defs>
        <filter id="filter-1">
            <feColorMatrix in="SourceGraphic" type="matrix" values="0 0 0 0 0.000000 0 0 0 0 0.000000 0 0 0 0 0.000000 0 0 0 1.000000 0"></feColorMatrix>
        </filter>
        <polygon id="path-2" points="0.707229393 22.9786855 134.454116 22.9786855 134.454116 0.285170403 0.707229393 0.285170403 0.707229393 22.9786855"></polygon>
        <polygon id="path-4" points="0.707370924 0.28515625 134.454314 0.28515625 134.454314 22.9786713 0.707370924 22.9786713"></polygon>
        <polygon id="path-6" points="0.707229393 22.9786855 134.454116 22.9786855 134.454116 0.285170403 0.707229393 0.285170403 0.707229393 22.9786855"></polygon>
        <polygon id="path-8" points="0.707370924 22.5320426 134.42581 22.5320426 134.42581 0.314127604 0.707370924 0.314127604"></polygon>
        <polygon id="path-10" points="0.707370924 0.28515625 134.454314 0.28515625 134.454314 22.9786713 0.707370924 22.9786713"></polygon>
        <polygon id="path-12" points="0.707229393 22.9786855 134.454116 22.9786855 134.454116 0.285170403 0.707229393 0.285170403 0.707229393 22.9786855"></polygon>
        <polygon id="path-14" points="0.376924819 0.142259681 134.123868 0.142259681 134.123868 22.8357747 0.376924819 22.8357747"></polygon>
    </defs>
    <g id="Booking" stroke="none" stroke-width="1" fill="none" fill-rule="evenodd">
        <g filter="url(#filter-1)" id="Booking.com_logo">
            <g transform="translate(-0.458333, 34.500000)">
                <g id="g3360-Clipped" transform="translate(68.207937, 12.489017) scale(-1, 1) rotate(-180.000000) translate(-68.207937, -12.489017) translate(0.707937, 0.989017)">
                    <mask id="mask-3" fill="white">
                        <use xlink:href="#path-2"></use>
                    </mask>
                    <g id="path3364"></g>
                    <g id="g3360" mask="url(#mask-3)">
                        <g id="g3366-Clipped">
                            <mask id="mask-5" fill="white">
                                <use xlink:href="#path-4"></use>
                            </mask>
                            <g id="path3370"></g>
                            <g id="g3366" mask="url(#mask-5)" fill-rule="nonzero">
                                <g transform="translate(12.737772, 4.619565)">
                                    <path d="M40.4190727,15.8748868 C40.4190727,17.0013587 41.3282665,17.9124774 42.4474921,17.9124774 C43.5705389,17.9124774 44.4832711,17.0013587 44.4832711,15.8748868 C44.4832711,14.7498726 43.5705389,13.8377916 42.4474921,13.8377916 C41.3282665,13.8377916 40.4190727,14.7498726 40.4190727,15.8748868" id="path3372" fill="#273B7D"></path>
                                    <path d="M72.4849977,2.32203918 C72.4849977,3.44897815 73.393767,4.36107337 74.5129925,4.36107337 C75.6356148,4.36107337 76.5482054,3.44897815 76.5482054,2.32203918 C76.5482054,1.19798743 75.6356148,0.284929801 74.5129925,0.284929801 C73.393767,0.284929801 72.4849977,1.19798743 72.4849977,2.32203918" id="path3374" fill="#499FDD"></path>
                                    <path d="M7.06450974,3.20272871 C5.31419837,3.20272871 4.0978827,4.59283005 4.0978827,6.57924309 C4.0978827,8.56516078 5.31419837,9.95429971 7.06450974,9.95429971 C8.82486979,9.95429971 10.0546309,8.56516078 10.0546309,6.57924309 C10.0546309,4.56145267 8.85048687,3.20272871 7.06450974,3.20272871 Z M7.06450974,12.9218325 C3.36149796,12.9218325 0.674111187,10.2536656 0.674111187,6.57924309 C0.674111187,2.90482054 3.36149796,0.237134851 7.06450974,0.237134851 C10.7813915,0.237134851 13.4799592,2.90482054 13.4799592,6.57924309 C13.4799592,10.2536656 10.7813915,12.9218325 7.06450974,12.9218325" id="path3376" fill="#273B7D"></path>
                                    <path d="M36.4829597,6.26201596 C36.3390229,6.53289176 36.173998,6.76224241 35.9982167,6.94426517 L35.8862659,7.06305197 L36.0040195,7.17603601 C36.173998,7.35517154 36.3477978,7.56762341 36.5153702,7.8138587 L39.7831748,12.6717193 L35.8162081,12.6717193 L33.3609318,8.8717731 C33.2219486,8.66801121 32.941293,8.56516078 32.5212296,8.56516078 L31.9616168,8.56516078 L31.9616168,15.749349 C31.9616168,17.1862828 31.0664346,17.3818359 30.0993546,17.3818359 L28.4437274,17.3818359 L28.446558,0.423983809 L31.9616168,0.423983809 L31.9616168,5.51071388 L32.290959,5.51071388 C32.6916327,5.51071388 32.9645041,5.46436255 33.0896173,5.24660326 L35.0287308,1.58667346 C35.5703691,0.593466938 36.1101676,0.423983809 37.125651,0.423983809 L39.8194067,0.423983809 L37.8132077,3.74255548 L36.4829597,6.26201596" id="path3378" fill="#273B7D"></path>
                                    <path d="M53.5474694,12.9488791 C51.7595109,12.9488791 50.6186311,12.1546082 49.9793365,11.4829738 L49.7659081,11.2671394 L49.6906137,11.5607026 C49.5028023,12.2801461 48.8697351,12.6760785 47.9170913,12.6760785 L46.341712,12.6760785 L46.3516191,0.428328804 L49.8427593,0.428328804 L49.8427593,6.07322803 C49.8427593,6.62511322 49.9145154,7.10408175 50.0604337,7.54105808 C50.4490772,8.86356431 51.5330616,9.68584409 52.8879359,9.68584409 C53.9777231,9.68584409 54.4035892,9.11077615 54.4035892,7.62458956 L54.4035892,2.29016644 C54.4035892,1.02173913 54.9902344,0.428328804 56.2596241,0.428328804 L57.9210541,0.428328804 L57.9153929,8.21799989 C57.9153929,11.3130095 56.4059669,12.9488791 53.5484601,12.9488791" id="path3380" fill="#273B7D"></path>
                                    <path d="M42.4939142,12.6707569 L40.8391361,12.6707569 L40.8504586,3.20080389 L40.8493263,3.20080389 L40.8493263,0.425441576 L42.6156307,0.425441576 C42.637851,0.425441576 42.6556839,0.423035553 42.6779042,0.423035553 L43.5006227,0.425441576 L44.3195199,0.425441576 L44.3195199,0.430253623 L44.3251812,0.430253623 L44.3322577,10.8113253 C44.3322577,12.0638162 43.7334409,12.6707569 42.4950464,12.6707569" id="path3382" fill="#273B7D"></path>
                                    <path d="M20.7775702,3.20272871 C19.0274004,3.20272871 17.8086787,4.59283005 17.8086787,6.57924309 C17.8086787,8.56516078 19.0274004,9.95429971 20.7775702,9.95429971 C22.5342505,9.95429971 23.7674083,8.56516078 23.7674083,6.57924309 C23.7674083,4.56145267 22.5636889,3.20272871 20.7775702,3.20272871 Z M20.7775702,12.9218325 C17.0708786,12.9218325 14.3829257,10.2536656 14.3829257,6.57924309 C14.3829257,2.90482054 17.0708786,0.237134851 20.7775702,0.237134851 C24.4906307,0.237134851 27.1935858,2.90482054 27.1935858,6.57924309 C27.1935858,10.2536656 24.4906307,12.9218325 20.7775702,12.9218325" id="path3384" fill="#273B7D"></path>
                                </g>
                            </g>
                        </g>
                    </g>
                </g>
                <g id="g3388-Clipped" transform="translate(68.207937, 12.489017) scale(-1, 1) rotate(-180.000000) translate(-68.207937, -12.489017) translate(0.707937, 0.989017)">
                    <mask id="mask-7" fill="white">
                        <use xlink:href="#path-6"></use>
                    </mask>
                    <g id="path3392"></g>
                    <g id="g3388" mask="url(#mask-7)">
                        <g id="g3394-Clipped">
                            <mask id="mask-9" fill="white">
                                <use xlink:href="#path-8"></use>
                            </mask>
                            <g id="path3398"></g>
                            <g id="g3394" mask="url(#mask-9)">
                                <g id="g3400-Clipped">
                                    <mask id="mask-11" fill="white">
                                        <use xlink:href="#path-10"></use>
                                    </mask>
                                    <g id="path3404"></g>
                                    <g id="g3400" mask="url(#mask-11)" fill-rule="nonzero">
                                        <g transform="translate(71.807065, 0.000000)">
                                            <path d="M36.541978,7.82229393 C34.7925159,7.82229393 33.572945,9.21239527 33.572945,11.1988083 C33.572945,13.184726 34.7925159,14.5738649 36.541978,14.5738649 C38.2989413,14.5738649 39.5326653,13.184726 39.5326653,11.1988083 C39.5326653,9.18101789 38.3283798,7.82229393 36.541978,7.82229393 Z M36.541978,17.5413978 C32.8361356,17.5413978 30.1481827,14.8732309 30.1481827,11.1988083 C30.1481827,7.52438576 32.8361356,4.85670007 36.541978,4.85670007 C40.2554631,4.85670007 42.9578521,7.52438576 42.9578521,11.1988083 C42.9578521,14.8732309 40.2554631,17.5413978 36.541978,17.5413978" id="path3406" fill="#499FDD"></path>
                                            <path d="M6.20739923,8.36115829 C4.2987149,8.36115829 3.61936707,10.0264663 3.61936707,11.5870131 C3.61936707,12.2745697 3.79316689,14.515441 6.02397532,14.515441 C7.13258605,14.515441 8.61002604,14.1977327 8.61002604,11.4716089 C8.61002604,8.9004897 7.30256454,8.36115829 6.20739923,8.36115829 L6.20739923,8.36115829 Z M10.422611,17.3231573 C9.7601053,17.3231573 9.25031137,17.0590466 8.99484828,16.5766814 L8.89832428,16.3893512 L8.73655457,16.5298488 C8.17297894,17.0175215 7.16259058,17.5959579 5.52182405,17.5959579 C2.25727468,17.5959579 0.0594429348,15.1440925 0.0594429348,11.4952729 C0.0594429348,7.85078408 2.33355978,5.30381001 5.58749434,5.30381001 C6.69893569,5.30381001 7.57727582,5.56309443 8.27346581,6.09035326 L8.54294044,6.29265738 L8.54294044,5.95226166 C8.54294044,4.3163921 7.48499774,3.41396343 5.56725543,3.41396343 C4.63527514,3.41396343 3.78693954,3.64089391 3.2196841,3.84659477 C2.47891191,4.07014266 2.04483696,3.88521852 1.74450861,3.14212523 L1.4673913,2.45649343 L1.075351,1.45507813 L1.31821784,1.32567652 C2.54557292,0.674323483 4.14331409,0.285637455 5.58749434,0.285637455 C8.56077332,0.285637455 12.0323822,1.80754642 12.0323822,6.09035326 L12.04512,17.3231573 L10.4231771,17.3231573" id="path3408" fill="#273B7D"></path>
                                        </g>
                                    </g>
                                </g>
                            </g>
                        </g>
                    </g>
                </g>
                <g id="g3412-Clipped" transform="translate(68.207937, 12.489017) scale(-1, 1) rotate(-180.000000) translate(-68.207937, -12.489017) translate(0.707937, 0.989017)">
                    <mask id="mask-13" fill="white">
                        <use xlink:href="#path-12"></use>
                    </mask>
                    <g id="path3416"></g>
                    <g id="g3412" mask="url(#mask-13)">
                        <g transform="translate(0.000000, -1.000000)" id="g3418-Clipped">
                            <mask id="mask-15" fill="white">
                                <use xlink:href="#path-14"></use>
                            </mask>
                            <g id="path3422"></g>
                            <g id="g3418" mask="url(#mask-15)" fill-rule="nonzero">
                                <g transform="translate(0.000000, 5.619565)">
                                    <path d="M6.80027174,3.34324049 L3.95833333,3.34607111 L3.95833333,6.7438151 C3.95833333,7.47000962 4.23983809,7.84759964 4.862149,7.93449955 L6.80027174,7.93449955 C8.18359375,7.93449955 9.07736073,7.06200464 9.07835145,5.65067369 C9.07736073,4.20214844 8.20581409,3.34413213 6.80027174,3.34316972 L6.80027174,3.34324049 Z M3.95833333,12.5090155 L3.95833333,13.4032354 C3.95833333,14.1859149 4.2895154,14.5581833 5.01627604,14.6059924 L6.47050498,14.6059924 C7.71767437,14.6059924 8.46467391,13.8595165 8.46467391,12.6108894 C8.46467391,11.6587268 7.95332314,10.54771 6.51636096,10.54771 L3.95833333,10.54771 L3.95833333,12.5090155 L3.95833333,12.5090155 Z M10.429829,9.11802253 L9.91607224,9.40675951 L10.3645833,9.79013813 C10.8861243,10.2386917 11.7605016,11.246858 11.7605016,12.9889464 C11.7605016,15.6542403 9.6930197,17.3746037 6.49314991,17.3746037 L2.84151381,17.3746037 L2.84151381,17.3755661 L2.42569633,17.3755661 C1.4770154,17.340792 0.717985734,16.5692227 0.707370924,15.6146399 L0.707370924,0.485790308 L2.38323709,0.485790308 C2.38748302,0.484827899 2.38889832,0.485790308 2.39031363,0.484827899 L6.56533062,0.485790308 C10.1224241,0.485790308 12.4183367,2.42198822 12.4183367,5.42091259 C12.4183367,7.03552423 11.6762908,8.41597317 10.4291214,9.11802253" id="path3424" fill="#273B7D"></path>
                                    <path d="M130.360337,12.9092788 C128.91177,12.9092788 127.511464,12.2308933 126.61246,11.0933254 L126.359403,10.7727157 L126.160977,11.131468 C125.514464,12.310561 124.401466,12.9092788 122.853969,12.9092788 C121.231176,12.9092788 120.142805,12.0039629 119.637257,11.4655939 L119.306499,11.1073228 L119.179121,11.5785779 C118.994565,12.2569633 118.390653,12.6306895 117.475657,12.6306895 L116.008265,12.6306895 L115.994112,0.430267776 L119.328153,0.430267776 L119.328153,5.81586843 C119.328153,6.28760473 119.386606,6.75451483 119.504784,7.2426687 C119.823511,8.54391701 120.69803,9.94367074 122.168252,9.80365433 C123.07504,9.71674026 123.517748,9.01613451 123.517748,7.66273211 L123.517748,0.430267776 L126.875425,0.430267776 L126.875425,5.81586843 C126.875425,6.40541497 126.93048,6.8467363 127.063377,7.28950125 C127.333701,8.53184443 128.246716,9.80557914 129.66528,9.80557914 C130.691803,9.80557914 131.071388,9.22424139 131.071388,7.66273211 L131.071388,2.21388134 C131.071388,0.981190557 131.621235,0.430267776 132.852978,0.430267776 L134.422271,0.430267776 L134.425102,8.2189623 C134.425102,11.3303895 133.055225,12.9092788 130.35963,12.9092788" id="path3426" fill="#499FDD"></path>
                                    <path d="M100.024768,4.66622792 C100.014861,4.6541978 98.580163,3.14141757 96.691293,3.14141757 C94.9704201,3.14141757 93.2317142,4.197393 93.2317142,6.55461673 C93.2317142,8.58978714 94.5797951,10.0122424 96.5092844,10.0122424 C97.1359828,10.0122424 97.8485904,9.78771796 97.9601166,9.4101421 L97.9765342,9.34639663 C98.2334126,8.49031929 99.0114074,8.44444916 99.1644022,8.44444916 L100.990999,8.44246773 L100.990999,10.0392182 C100.990999,12.1453663 98.3121037,12.9092221 96.5092844,12.9092221 C92.6542686,12.9092221 89.8570539,10.2251189 89.8570539,6.52897135 C89.8570539,2.83426744 92.6238394,0.154027966 96.4388021,0.154027966 C99.7486413,0.154027966 101.54863,2.32969599 101.565472,2.35143512 L101.661572,2.46924536 L100.214985,4.86895663 L100.024768,4.66617131" id="path3428" fill="#499FDD"></path>
                                </g>
                            </g>
                        </g>
                    </g>
                </g>
            </g>
        </g>
    </g>
</svg>