<?xml version="1.0" encoding="UTF-8"?>
<svg width="135px" height="96px" viewBox="0 0 135 96" version="1.1" xmlns="http://www.w3.org/2000/svg" xmlns:xlink="http://www.w3.org/1999/xlink">
    <title>channelaffairs</title>
    <g id="channelaffairs" stroke="none" stroke-width="1" fill="none" fill-rule="evenodd">
        <g id="Channel-Affairs-Logo-with-Text" transform="translate(0.000000, 34.500000)" fill-rule="nonzero">
            <rect id="Rectangle" fill="#000000" transform="translate(13.494485, 13.439619) rotate(-44.740000) translate(-13.494485, -13.439619) " x="-3.76083302" y="12.104803" width="34.5106358" height="2.66963264" rx="1.33481377"></rect>
            <circle id="Oval" stroke="#000000" stroke-width="2.03773585" fill="#FFFFFF" cx="13.4982679" cy="14.0869698" r="11.7169811"></circle>
            <path d="M11.591966,16.9014396 C11.591966,16.9014396 13.3254679,19.7754623 15.6520528,17.2277321 C16.5872208,14.0275189 18.4576075,16.2856358 17.4767943,17.8595321 C17.0434189,18.726283 16.018183,20.1613585 13.6860962,20.186117 C11.833183,20.2057302 10.3156302,19.0123302 9.67593396,17.2277321 C9.67593396,17.2277321 9.49345472,15.5158811 9.49345472,11.7693509 C9.49345472,9.12920943 11.2726019,7.75485849 13.6860962,7.45831698 C16.0995906,7.16177547 18.9366792,10.8569038 17.1118868,12.0886642 C16.282834,12.1807698 16.1766679,11.9517792 15.4011566,10.2182774 C14.9677811,9.64801698 13.1714151,8.7645566 11.833183,10.5375906 C11.0673509,11.8833623 11.591966,16.9014396 11.591966,16.9014396 Z" id="Path" stroke="#000000" stroke-width="0.509433962" fill="#000000" stroke-linejoin="round"></path>
            <path d="M41.5828528,16.2732566 C41.1190642,17.276434 40.4182868,17.7780736 39.4806226,17.7780736 C39.0873906,17.7780736 38.7496358,17.694883 38.4673585,17.5285019 C38.1799868,17.3873377 37.9480925,17.2033302 37.7716245,16.9764792 C37.5548604,16.7395415 37.4112,16.4295 37.3405925,16.0463547 C37.2599491,15.6632604 37.2196019,14.9297264 37.2196019,13.8458547 C37.2196019,12.761983 37.2599491,12.0234566 37.3405925,11.6302245 C37.4112,11.257166 37.5548604,10.9521679 37.7716245,10.7152302 C37.9480925,10.4883792 38.1799868,10.2993283 38.4673585,10.1480774 C38.7496358,10.0018698 39.0873906,9.92372264 39.4806226,9.91368679 C40.0150189,9.92372264 40.4687208,10.0775208 40.8417792,10.3749283 C41.1997075,10.687517 41.4467321,11.0656189 41.5828528,11.509234 L43.3523208,11.509234 C43.1759038,10.5867 42.7524113,9.81281887 42.0819453,9.1877434 C41.4114283,8.56766038 40.5443208,8.25257547 39.4806226,8.24248868 C38.6135151,8.25257547 37.8901189,8.45925283 37.310383,8.8625717 C36.7205604,9.26079623 36.2920245,9.71454906 36.0248264,10.2237283 C35.8584962,10.4908755 35.7349585,10.8412642 35.6543151,11.2747925 C35.5786642,11.7083717 35.5408642,12.5653925 35.5408642,13.8458547 C35.5408642,15.1061943 35.5786642,15.9581717 35.6543151,16.4017868 C35.6946623,16.6387245 35.7450453,16.8353151 35.805566,16.9916094 C35.8710792,17.1428604 35.944183,17.3016509 36.0248264,17.4680321 C36.2920245,17.9771604 36.7205604,18.4258698 37.310383,18.8140585 C37.8901189,19.2173264 38.6135151,19.4290472 39.4806226,19.4492208 C40.4384604,19.4492208 41.2677679,19.1770302 41.9684943,18.6325472 C42.6490981,18.0830717 43.1103396,17.2966075 43.3523208,16.2732566 L41.5828528,16.2732566 Z M44.4723113,19.3584906 L46.0527283,19.3584906 L46.0527283,14.6852491 C46.0527283,14.1357226 46.2014321,13.7173245 46.4988906,13.4299528 C46.7912547,13.1375377 47.1643132,12.9913811 47.618066,12.9913811 C48.0717679,12.9913811 48.4422792,13.1375377 48.7296509,13.4299528 C49.022066,13.7173245 49.1682226,14.1357226 49.1682226,14.6852491 L49.1682226,19.3584906 L50.7486906,19.3584906 L50.7486906,14.140766 C50.7234736,13.2434491 50.4436925,12.5628453 49.9092962,12.0990566 C49.3699075,11.6403113 48.7750415,11.4109132 48.1246981,11.4109132 C47.2828075,11.4109132 46.6022547,11.7209547 46.0829887,12.3410377 L46.0527283,12.3410377 L46.0527283,8.33321887 L44.4723113,8.33321887 L44.4723113,19.3584906 Z M56.9878302,19.3584906 L58.5686038,19.3584906 L58.5686038,13.9971057 C58.5584151,13.0392679 58.2583585,12.3637075 57.668434,11.9705264 C57.0790189,11.5873811 56.2899057,11.4008264 55.3016038,11.4109132 C54.1319434,11.3907396 53.247566,11.7738849 52.6474528,12.5603491 L53.8874151,13.5055528 C54.0239434,13.2787019 54.2103962,13.1174151 54.447283,13.0215906 C54.6739811,12.9409472 54.9842264,12.9006 55.3775094,12.9006 C56.4610755,12.8804774 56.9980189,13.2156849 56.9878302,13.9063755 L56.9878302,14.7305887 L54.8028679,14.7305887 C53.9658679,14.7406755 53.3306038,14.9675264 52.8970755,15.4111925 C52.4635472,15.8447208 52.2465283,16.3917 52.2465283,17.0521302 C52.2465283,17.7427698 52.4961509,18.3099226 52.9953962,18.7535377 C53.4691698,19.2072396 54.1446792,19.439134 55.0219245,19.4492208 C55.5563208,19.4492208 55.974566,19.3837075 56.2771698,19.2526302 C56.5848679,19.1265962 56.811566,18.9300057 56.9577736,18.6628075 L56.9878302,18.6628075 L56.9878302,19.3584906 Z M56.9878302,16.5983774 C56.9878302,17.1882 56.8645472,17.5663019 56.6174717,17.732683 C56.345434,17.8990642 55.8787925,17.9771604 55.218566,17.9671245 C54.6943585,17.9671245 54.3189057,17.8637604 54.0916981,17.657083 C53.8548113,17.4705283 53.7366226,17.2436774 53.7366226,16.9764792 C53.726434,16.366483 54.1798302,16.0513981 55.0973208,16.0312755 L56.9878302,16.0312755 L56.9878302,16.5983774 Z M60.6868302,19.3584906 L62.2670943,19.3584906 L62.2670943,14.6852491 C62.2670943,14.1357226 62.4158491,13.7173245 62.7133585,13.4299528 C63.0057736,13.1375377 63.3786792,12.9913811 63.8325849,12.9913811 C64.2859811,12.9913811 64.6568491,13.1375377 64.9441698,13.4299528 C65.2365849,13.7173245 65.3827925,14.1357226 65.3827925,14.6852491 L65.3827925,19.3584906 L66.9630566,19.3584906 L66.9630566,14.140766 C66.9375849,13.2434491 66.6579057,12.5628453 66.1235094,12.0990566 C65.5840189,11.6403113 64.9895094,11.4109132 64.3389623,11.4109132 C63.4973774,11.4109132 62.8167736,11.7209547 62.2971509,12.3410377 L62.2670943,12.3410377 L62.2670943,11.509234 L60.6868302,11.509234 L60.6868302,19.3584906 Z M69.081283,19.3584906 L70.6615472,19.3584906 L70.6615472,14.6852491 C70.6615472,14.1357226 70.8103019,13.7173245 71.1078113,13.4299528 C71.4002264,13.1375377 71.7731321,12.9913811 72.2270377,12.9913811 C72.680434,12.9913811 73.0513019,13.1375377 73.3386226,13.4299528 C73.6310377,13.7173245 73.7772453,14.1357226 73.7772453,14.6852491 L73.7772453,19.3584906 L75.3575094,19.3584906 L75.3575094,14.140766 C75.3325472,13.2434491 75.0523585,12.5628453 74.5179623,12.0990566 C73.9789811,11.6403113 73.3839623,11.4109132 72.7334151,11.4109132 C71.8918302,11.4109132 71.2112264,11.7209547 70.6916038,12.3410377 L70.6615472,12.3410377 L70.6615472,11.509234 L69.081283,11.509234 L69.081283,19.3584906 Z M83.5629623,16.0312755 L83.5629623,14.7305887 C83.5527736,13.6971509 83.2328491,12.8855208 82.6026792,12.2956472 C81.9826981,11.7159113 81.2236415,11.421 80.3265283,11.4109132 C79.9536226,11.4109132 79.5751132,11.4789736 79.1920189,11.6150943 C78.8038302,11.7512151 78.4538491,11.9730226 78.1410566,12.2805679 C77.8333585,12.5830189 77.5816981,12.9964245 77.3850566,13.520683 C77.1884151,14.0349057 77.0900943,14.6802057 77.0900943,15.4565321 C77.0900943,16.2631698 77.2031887,16.9185057 77.4303962,17.4226415 C77.636717,17.9469509 77.906717,18.3552623 78.2393774,18.6476774 C78.4110566,18.7888415 78.5949623,18.9072849 78.7916038,19.0030585 C78.9780566,19.1140132 79.1696038,19.2021962 79.3662453,19.2677604 C79.7595283,19.3887509 80.1624906,19.4492208 80.5761509,19.4492208 C81.659717,19.4593075 82.6026792,19.035866 83.4040189,18.1788453 L82.2623774,17.2033302 C81.7580377,17.7125094 81.1859434,17.9671245 80.5455849,17.9671245 C79.9964151,17.9671245 79.5526981,17.8007434 79.2149434,17.4680321 C78.851717,17.1403132 78.6703585,16.6613943 78.6703585,16.0312755 L83.5629623,16.0312755 Z M78.6703585,14.7305887 C78.7009245,14.1205925 78.8644528,13.6593509 79.1619623,13.3467623 C79.464566,13.0493547 79.8527547,12.9006 80.3265283,12.9006 C80.8003019,12.9006 81.1884906,13.0493547 81.4910943,13.3467623 C81.7987925,13.6593509 81.9623208,14.1205925 81.9826981,14.7305887 L78.6703585,14.7305887 Z M85.2955472,17.4529019 C85.2955472,18.1435415 85.4921887,18.6350434 85.8854717,18.9274585 C86.2583774,19.2148302 86.7321509,19.3584906 87.3067925,19.3584906 L88.0103208,19.3584906 L88.0103208,17.8688038 L87.4657358,17.8688038 C87.0724528,17.8688038 86.8758113,17.6898396 86.8758113,17.3319113 L86.8758113,8.33321887 L85.2955472,8.33321887 L85.2955472,17.4529019 Z M95.256,15.4111925 L96.8515472,10.5942396 L96.8821132,10.5942396 L98.4776604,15.4111925 L95.256,15.4111925 Z M99.8083019,19.3584906 L101.570434,19.3584906 L97.562717,8.33321887 L96.1633019,8.33321887 L92.1555849,19.3584906 L93.9253585,19.3584906 L94.7720377,16.8932887 L98.9539811,16.8932887 L99.8083019,19.3584906 Z M102.939792,19.3584906 L104.520057,19.3584906 L104.520057,12.7115491 L106.10083,12.7115491 L106.10083,11.509234 L104.520057,11.509234 L104.520057,10.4732491 C104.500189,10.0245906 104.726887,9.80777547 105.20066,9.82290566 L106.10083,9.82290566 L106.10083,8.33321887 L105.079925,8.33321887 C104.469623,8.33321887 103.963245,8.49705283 103.559774,8.8247717 C103.146623,9.1776566 102.939792,9.72713208 102.939792,10.4732491 L102.939792,11.509234 L102.145585,11.509234 L102.145585,12.7115491 L102.939792,12.7115491 L102.939792,19.3584906 Z M107.039208,19.3584906 L108.619472,19.3584906 L108.619472,12.7115491 L110.200245,12.7115491 L110.200245,11.509234 L108.619472,11.509234 L108.619472,10.4732491 C108.599604,10.0245906 108.826302,9.80777547 109.300075,9.82290566 L110.200245,9.82290566 L110.200245,8.33321887 L109.17934,8.33321887 C108.569038,8.33321887 108.06266,8.49705283 107.659189,8.8247717 C107.246038,9.1776566 107.039208,9.72713208 107.039208,10.4732491 L107.039208,11.509234 L106.245,11.509234 L106.245,12.7115491 L107.039208,12.7115491 L107.039208,19.3584906 Z M115.297642,19.3584906 L116.877906,19.3584906 L116.877906,13.9971057 C116.867717,13.0392679 116.56817,12.3637075 115.978245,11.9705264 C115.388321,11.5873811 114.599208,11.4008264 113.611415,11.4109132 C112.441755,11.3907396 111.556868,11.7738849 110.956755,12.5603491 L112.197226,13.5055528 C112.333245,13.2787019 112.519698,13.1174151 112.756585,13.0215906 C112.983792,12.9409472 113.293528,12.9006 113.686811,12.9006 C114.770887,12.8804774 115.30783,13.2156849 115.297642,13.9063755 L115.297642,14.7305887 L113.11217,14.7305887 C112.27517,14.7406755 111.639906,14.9675264 111.206377,15.4111925 C110.772849,15.8447208 110.55634,16.3917 110.55634,17.0521302 C110.55634,17.7427698 110.805962,18.3099226 111.304698,18.7535377 C111.778981,19.2072396 112.454491,19.439134 113.331226,19.4492208 C113.865623,19.4492208 114.284377,19.3837075 114.586472,19.2526302 C114.89417,19.1265962 115.120868,18.9300057 115.267075,18.6628075 L115.297642,18.6628075 L115.297642,19.3584906 Z M115.297642,16.5983774 C115.297642,17.1882 115.173849,17.5663019 114.926774,17.732683 C114.654736,17.8990642 114.188604,17.9771604 113.527868,17.9671245 C113.00366,17.9671245 112.628208,17.8637604 112.401509,17.657083 C112.164623,17.4705283 112.045925,17.2436774 112.045925,16.9764792 C112.035736,16.366483 112.489642,16.0513981 113.407132,16.0312755 L115.297642,16.0312755 L115.297642,16.5983774 Z M119.041472,19.3584906 L120.621736,19.3584906 L120.621736,11.509234 L119.041472,11.509234 L119.041472,19.3584906 Z M119.041472,9.91368679 L120.621736,9.91368679 L120.621736,8.33321887 L119.041472,8.33321887 L119.041472,9.91368679 Z M122.792943,19.3584906 L124.373208,19.3584906 L124.373208,14.6323189 C124.383396,14.0575755 124.549981,13.6416736 124.872453,13.3845623 C125.159774,13.1224585 125.50517,12.9913811 125.908642,12.9913811 C126.266264,12.9913811 126.61166,13.1224585 126.944321,13.3845623 L128.094113,12.015866 C127.624925,11.622634 127.075755,11.421 126.445585,11.4109132 C125.603491,11.4109132 124.922887,11.7209547 124.403774,12.3410377 L124.373208,12.3410377 L124.373208,11.509234 L122.792943,11.509234 L122.792943,19.3584906 Z M129.138453,16.9613491 L128.034,18.0427245 C129.057453,18.9803887 130.209283,19.4492208 131.49,19.4492208 C132.432453,19.439134 133.206283,19.2223698 133.811491,18.7989283 C134.421283,18.3855226 134.731528,17.7981962 134.741717,17.037 C134.741717,16.3866566 134.572585,15.8497642 134.23483,15.4263226 C133.872113,14.9927434 133.282189,14.7457189 132.465566,14.6852491 L131.164981,14.5869283 C130.781887,14.5465811 130.514434,14.4533547 130.363132,14.3071472 C130.197057,14.1760698 130.118604,14.0223226 130.128792,13.8458547 C130.128792,13.5685698 130.232208,13.3417189 130.439038,13.1653019 C130.635679,12.988834 130.980566,12.9006 131.474717,12.9006 C131.908245,12.9006 132.29134,12.963617 132.624509,13.0896509 C132.962264,13.2308151 133.282189,13.4097792 133.584792,13.6265434 L134.560358,12.4846981 C134.176755,12.1519868 133.743226,11.8873358 133.259264,11.6906943 C133.007604,11.5999642 132.737604,11.5294075 132.450283,11.4789736 C132.162962,11.433634 131.837943,11.4109132 131.474717,11.4109132 C130.638226,11.4109132 129.947434,11.6125981 129.402849,12.015866 C128.843491,12.4191849 128.558717,13.0241377 128.548528,13.8307245 C128.558717,14.5012415 128.775226,15.0230038 129.198566,15.3960623 C129.612226,15.7792075 130.14917,16.0010151 130.809396,16.0614849 L132.20066,16.1824755 C132.493075,16.1925623 132.727415,16.2555792 132.904189,16.3715264 C133.075358,16.4824302 133.160943,16.6790717 133.160943,16.9613491 C133.160943,17.2789811 133.017283,17.5260057 132.729962,17.7024226 C132.442642,17.8788906 132.072283,17.9671245 131.618377,17.9671245 C130.605113,17.9671245 129.778302,17.631866 129.138453,16.9613491 Z" id="Shape" fill="#000000"></path>
        </g>
    </g>
</svg>