<?xml version="1.0" encoding="UTF-8"?>
<svg width="135px" height="96px" viewBox="0 0 135 96" version="1.1" xmlns="http://www.w3.org/2000/svg" xmlns:xlink="http://www.w3.org/1999/xlink">
    <title>designlab</title>
    <g id="designlab" stroke="none" stroke-width="1" fill="none" fill-rule="evenodd">
        <g id="Designlab-black" transform="translate(0.000000, 40.000000)" fill="#000000" fill-rule="nonzero">
            <path d="M5.28973822,13.8788482 C9.03863874,13.8788482 11.4318848,11.3074869 11.4318848,7.98549738 L11.4318848,7.94308901 C11.4318848,4.62109948 9.03863874,2.00732984 5.28973822,2.00732984 L1.81719895,2.00732984 L1.81719895,13.8788482 L5.28973822,13.8788482 Z M0.144188482,0.443167539 L5.28973822,0.443167539 C9.94971204,0.443167539 13.1685079,3.6789267 13.1685079,7.89997382 L13.1685079,7.9423822 C13.1685079,12.1648429 9.94971204,15.4430105 5.28973822,15.4430105 L0.144188482,15.4430105 L0.144188482,0.443167539 Z M17.7479058,0.443167539 L28.463089,0.443167539 L28.463089,1.98541885 L19.4209162,1.98541885 L19.4209162,7.10693717 L27.5117277,7.10693717 L27.5117277,8.64989529 L19.4202094,8.64989529 L19.4202094,13.9000524 L28.5698168,13.9000524 L28.5698168,15.4430105 L17.747199,15.4430105 L17.747199,0.443167539 L17.7479058,0.443167539 Z M32.020445,13.2575654 L33.0580366,12.0142932 C34.603822,13.4293194 36.0859948,14.1361257 38.1413874,14.1361257 C40.1317539,14.1361257 41.4442932,13.0646073 41.4442932,11.5859686 L41.4442932,11.5435602 C41.4442932,10.150445 40.7035602,9.35740838 37.5893717,8.69301047 C34.180445,7.9423822 32.6134555,6.8284555 32.6134555,4.36382199 L32.6134555,4.32141361 C32.6134555,1.96421466 34.6674346,0.229005236 37.4847644,0.229005236 C39.6447644,0.229005236 41.1905497,0.850287958 42.6939267,2.07164921 L41.7199476,3.37853403 C40.343089,2.24269634 38.9669372,1.75005236 37.442356,1.75005236 C35.5141885,1.75005236 34.286466,2.82157068 34.286466,4.17157068 L34.286466,4.21397906 C34.286466,5.62829843 35.0498168,6.42133508 38.3103141,7.12814136 C41.6139267,7.85756545 43.1385079,9.0789267 43.1385079,11.3718063 L43.1385079,11.4142147 C43.1385079,13.9862827 41.0209162,15.6571728 38.0777749,15.6571728 C35.7269372,15.6571728 33.7987696,14.8641361 32.020445,13.2575654 M47.7058901,15.4437173 L49.3789005,15.4437173 L49.3789005,0.442460733 L47.7058901,0.442460733 L47.7058901,15.4423037 L47.7058901,15.4437173 Z M54.0636126,7.98620419 L54.0636126,7.94379581 C54.0636126,3.82806283 57.0491623,0.185890052 61.4963874,0.185890052 C63.9956545,0.185890052 65.5414398,0.913900524 67.0236126,2.17837696 L65.9450262,3.46335079 C64.8014136,2.45615183 63.5305759,1.74934555 61.4341885,1.74934555 C58.1510733,1.74934555 55.8002356,4.5567801 55.8002356,7.89997382 L55.8002356,7.9423822 C55.8002356,11.5209424 58.0662565,14.1778272 61.6667277,14.1778272 C63.3609424,14.1778272 64.9279319,13.5134293 65.9450262,12.6779843 L65.9450262,8.94958115 L61.4341885,8.94958115 L61.4341885,7.42853403 L67.5544241,7.42853403 L67.5544241,13.4067016 C66.1775654,14.649267 64.1023822,15.700288 61.6031152,15.700288 C56.9438482,15.700288 54.0636126,12.2708639 54.0636126,7.98549738 M72.5289267,0.443167539 L74.0952094,0.443167539 L83.4356545,12.4645288 L83.4356545,0.443167539 L85.0662565,0.443167539 L85.0662565,15.4430105 L83.7318063,15.4430105 L74.1595288,3.14246073 L74.1595288,15.4437173 L72.5289267,15.4437173 L72.5289267,0.443167539 Z M90.2754188,0.443167539 L93.5380366,0.443167539 L93.5380366,12.4433246 L100.92911,12.4433246 L100.92911,15.4430105 L90.2754188,15.4430105 L90.2754188,0.443167539 L90.2754188,0.443167539 Z M112.978037,9.16445026 L111.008874,4.30020942 L109.039712,9.16445026 L112.978037,9.16445026 Z M109.547906,0.335026178 L112.555366,0.335026178 L118.908848,15.4437173 L115.498508,15.4437173 L114.142853,12.0786126 L107.874895,12.0786126 L106.518534,15.4430105 L103.193717,15.4430105 L109.547906,0.335026178 Z M129.192173,12.5500524 C130.633351,12.5500524 131.501309,12.0362042 131.501309,10.9215707 L131.501309,10.8791623 C131.501309,9.87196335 130.760576,9.25068063 129.087565,9.25068063 L125.316754,9.25068063 L125.316754,12.5500524 L129.192173,12.5500524 L129.192173,12.5500524 Z M128.324921,6.50685864 C129.763979,6.50685864 130.675759,6.03541885 130.675759,4.92149215 L130.675759,4.87908377 C130.675759,3.89308901 129.912408,3.33541885 128.53555,3.33541885 L125.316754,3.33541885 L125.316754,6.50685864 L128.324921,6.50685864 L128.324921,6.50685864 Z M122.140366,0.442460733 L129.023953,0.442460733 C130.716754,0.442460733 132.051204,0.91460733 132.899372,1.77125654 C133.576492,2.45685864 133.915759,3.29301047 133.915759,4.32141361 L133.915759,4.36382199 C133.915759,6.05803665 133.02589,7.00020942 131.967094,7.60099476 C133.682513,8.26539267 134.741309,9.27188482 134.741309,11.2862827 L134.741309,11.3286911 C134.741309,14.0710995 132.538901,15.4430105 129.192173,15.4430105 L122.140366,15.4430105 L122.140366,0.443167539 L122.140366,0.442460733 Z" id="Shape"></path>
        </g>
    </g>
</svg>