<?xml version="1.0" encoding="UTF-8"?>
<svg width="135px" height="96px" viewBox="0 0 135 96" version="1.1" xmlns="http://www.w3.org/2000/svg" xmlns:xlink="http://www.w3.org/1999/xlink">
    <title>vonq</title>
    <defs>
        <filter id="filter-1">
            <feColorMatrix in="SourceGraphic" type="matrix" values="0 0 0 0 0.000000 0 0 0 0 0.000000 0 0 0 0 0.000000 0 0 0 1.000000 0"></feColorMatrix>
        </filter>
    </defs>
    <g id="vonq" stroke="none" stroke-width="1" fill="none" fill-rule="evenodd">
        <g filter="url(#filter-1)" id="logo-vonq-white">
            <g transform="translate(0.000000, 32.000000)">
                <polygon id="Path" fill="#FFFFFF" fill-rule="nonzero" points="0 0.578215385 8.20343077 0.578215385 14.3228769 20.2616308 20.4905077 0.578215385 28.5493846 0.578215385 17.7801231 30.1635692 10.7451692 30.1635692"></polygon>
                <polygon id="Path" fill="#FFFFFF" fill-rule="nonzero" points="64.9408154 1.73464615 70.8193385 1.73464615 84.4074 19.2377077 84.4074 1.73464615 90.6954923 1.73464615 90.6954923 30.1635692 85.2626769 30.1635692 71.2168615 12.0943385 71.2168615 30.1635692 64.9408154 30.1635692"></polygon>
                <path d="M30.7899692,15.4431692 L30.7899692,15.3588462 C30.7899692,9.95773237 33.671429,4.96689738 38.3489307,2.26634045 C43.0264324,-0.434216473 48.7893522,-0.434216473 53.4668539,2.26634045 C58.1443557,4.96689738 61.0258154,9.95773237 61.0258154,15.3588462 L61.0258154,15.4431692 C61.0258154,23.7925676 54.2572907,30.5610923 45.9078923,30.5610923 C37.5584939,30.5610923 30.7899692,23.7925676 30.7899692,15.4431692 L30.7899692,15.4431692 Z M54.4968,15.4431692 L54.4968,15.3588462 C54.4968,10.2633231 50.8829538,6.02307692 45.8717538,6.02307692 C40.8605538,6.02307692 37.3430769,10.1669538 37.3430769,15.2624769 L37.3430769,15.3468 C37.3430769,20.4423231 40.9569231,24.6825692 45.9681231,24.6825692 C50.9793231,24.6825692 54.4968,20.5386923 54.4968,15.4431692 L54.4968,15.4431692 Z" id="Shape" fill="#FFFFFF" fill-rule="nonzero"></path>
                <path d="M121.955262,31.32 L118.823262,28.4289231 C116.317803,30.0703379 113.386203,30.9414417 110.390954,30.9345231 C106.344278,31.0402793 102.430013,29.4884345 99.5551216,26.6385623 C96.6802305,23.7886901 95.0942327,19.888138 95.1646154,15.8406923 L95.1646154,15.7563692 C95.1646156,7.36372715 101.968196,0.560146607 110.360838,0.560146607 C118.753481,0.560146607 125.557061,7.36372715 125.557062,15.7563692 L125.557062,15.8406923 C125.554711,18.838089 124.67535,21.7692923 123.027369,24.273 L125.966631,26.8388308 L121.955262,31.32 Z M114.125262,24.2007231 L109.4634,20.1291231 L113.462723,15.5274923 L118.184815,19.9002462 C118.699426,18.6257483 118.961271,17.2633362 118.955854,15.8888769 L118.955854,15.8045538 C118.955854,10.7813077 115.341923,6.58924615 110.294585,6.58924615 C105.247246,6.58924615 101.729769,10.6849385 101.729769,15.66 L101.729769,15.7443231 C101.729769,20.7675692 105.343615,24.9596308 110.390954,24.9596308 C111.681146,24.9942121 112.962287,24.7346885 114.137308,24.2007231 L114.125262,24.2007231 Z" id="Shape" fill="#FFFFFF" fill-rule="nonzero"></path>
                <polygon id="Path" fill="#FFFFFF" fill-rule="nonzero" points="128.761338 24.3573231 134.916923 24.3573231 134.916923 30.7417846 128.761338 30.7417846"></polygon>
            </g>
        </g>
    </g>
</svg>